<svg width="48" height="45" viewBox="0 0 48 45" fill="none" xmlns="http://www.w3.org/2000/svg">
<path d="M39.8816 8.45813C39.8816 8.45813 39.8948 8.6415 39.8988 8.97591L39.9004 9.10854C39.9007 9.15546 39.903 9.20208 39.8981 9.26154C39.8878 9.38555 39.8775 9.50956 39.8672 9.63356C39.8549 9.76688 39.8433 9.91694 39.8261 10.0669C39.8083 10.2141 39.7914 10.3724 39.7681 10.5379C39.6589 11.3379 39.4927 12.1291 39.2707 12.9054C39.0151 13.8073 38.6556 14.8107 38.1605 15.8676C37.6671 16.9252 37.0307 18.0299 36.2499 19.1349C36.1552 19.2759 36.0512 19.4098 35.9488 19.5474L35.7937 19.7539L35.7155 19.8577L35.6959 19.8838C35.7575 19.8271 35.6008 19.9758 35.6141 19.9643L35.606 19.9752L35.5734 20.0186C35.4004 20.2513 35.218 20.479 35.0377 20.7135L35.0206 20.7354L34.9966 20.7624L34.9482 20.8167L34.8511 20.9254L34.6528 21.1412L34.249 21.5749L34.1469 21.6835L34.051 21.7817C33.987 21.8477 33.9222 21.9128 33.8566 21.9772L33.4609 22.3681C32.3906 23.4049 31.175 24.3705 29.8547 25.228C28.516 26.0948 27.0972 26.8313 25.6179 27.4272C24.1375 28.0253 22.6039 28.4822 21.0376 28.7919C19.4892 29.0961 17.939 29.2484 16.4425 29.2561C14.9457 29.2643 13.5039 29.1312 12.1642 28.8923C11.4937 28.7785 10.8498 28.6231 10.2342 28.4633C9.62009 28.2885 9.03326 28.1125 8.48218 27.9031L8.07333 27.7538C7.93894 27.7042 7.80837 27.6449 7.67868 27.5918C7.4195 27.484 7.16834 27.3756 6.92562 27.2669C6.68377 27.1547 6.45123 27.0379 6.22663 26.9245L5.89555 26.7568C5.78712 26.7019 5.68319 26.6388 5.57985 26.5816C5.16816 26.3467 4.78712 26.1288 4.4487 25.8979C4.1089 25.671 3.79957 25.4663 3.53245 25.2568L3.15435 24.9633L2.82758 24.6973C2.62825 24.5266 2.46389 24.374 2.33126 24.2509C2.0663 24.0047 1.9324 23.864 1.9324 23.864C0.686148 22.5545 0.737475 20.4827 2.047 19.2364C2.57196 18.7352 3.24922 18.4236 3.97137 18.351L4.36397 18.3114C4.36397 18.3114 4.52853 18.2947 4.82317 18.2808C4.97039 18.2739 5.15111 18.2646 5.3574 18.2625L5.69387 18.2428L6.06785 18.2285C6.32733 18.226 6.61844 18.2007 6.92484 18.1908C7.23025 18.1845 7.563 18.1534 7.9073 18.1396C8.25219 18.1243 8.61912 18.0861 8.99437 18.0685C9.37472 18.0275 9.76369 18.0101 10.1686 17.9627L10.4734 17.9324L10.6268 17.9198L10.782 17.9006L11.0951 17.8623L11.4106 17.8303C11.623 17.7993 11.8373 17.7691 12.053 17.7447L12.2152 17.7247L12.3786 17.6977L12.707 17.6498C13.5861 17.5166 14.4919 17.3552 15.4102 17.1581C17.247 16.7665 19.1341 16.2334 20.975 15.5506C21.8943 15.2086 22.8011 14.834 23.6938 14.4276C24.5843 14.0245 25.4514 13.5883 26.296 13.1398L26.6086 12.9671C26.6605 12.9382 26.7128 12.9099 26.766 12.8826L26.8453 12.8414L26.9131 12.8048L27.1837 12.6602L27.3202 12.589L27.3897 12.5548L27.4245 12.5378L27.442 12.5291L27.4653 12.514C27.7134 12.3528 27.9547 12.189 28.2006 12.0352L28.2464 12.0062L28.2579 11.9989C28.2778 11.9814 28.1274 12.124 28.1954 12.061L28.2138 12.0497L28.2875 12.0044L28.4346 11.9143L28.7273 11.7344C29.5009 11.2521 30.2434 10.7673 30.9309 10.2869C31.5749 9.83799 32.2103 9.37682 32.8367 8.90362C33.4153 8.46959 33.9255 8.06623 34.3574 7.72653C34.4635 7.64062 34.569 7.56089 34.6663 7.48409C34.7623 7.40926 34.8509 7.3453 34.9349 7.28133L35.1691 7.10492C35.2057 7.08092 35.2436 7.04625 35.2789 7.01627L35.3796 6.92998C35.6336 6.71243 35.7801 6.60135 35.7801 6.60135C36.9075 5.74691 38.514 5.96818 39.3684 7.09552C39.6688 7.48989 39.8472 7.96357 39.8816 8.45813Z" fill="#FFAE2C"/>
<path d="M3.07728 21.2493C2.67627 22.1649 2.32119 22.2861 1.37928 21.8736C0.437271 21.4611 0.285542 21.118 0.686462 20.2024C1.08738 19.2867 3.4783 20.3336 3.07728 21.2493Z" fill="#B28E7F"/>
<path d="M41.9524 9.63461C41.9524 9.63461 41.9963 9.83737 42.054 10.2105L42.0768 10.3585C42.0847 10.4109 42.0945 10.4626 42.0986 10.5298L42.1232 10.9504C42.1306 11.1013 42.1417 11.2708 42.1462 11.4411C42.1497 11.6084 42.156 11.788 42.1563 11.9766C42.1614 12.8879 42.1015 13.7984 41.9768 14.7012C41.8346 15.7497 41.5924 16.928 41.2072 18.1877C40.824 19.4479 40.2885 20.7836 39.5918 22.1423C39.5083 22.3148 39.4134 22.4811 39.3208 22.6511L39.1804 22.9066L39.1095 23.035L39.0917 23.0672C39.1516 22.994 39 23.1851 39.0131 23.1702L39.0057 23.1836L38.9762 23.2373C38.82 23.5248 38.6523 23.8082 38.488 24.0989L38.4726 24.1261L38.45 24.1601L38.4046 24.2283L38.3133 24.3653L38.1261 24.6379L37.7438 25.1867L37.647 25.3242L37.5554 25.4492C37.4946 25.533 37.4323 25.6158 37.3693 25.6985L36.9894 26.1981C35.9582 27.5268 34.7534 28.799 33.4144 29.9671C32.0563 31.1485 30.5881 32.197 29.0297 33.098C27.4706 34.0016 25.8297 34.756 24.1287 35.3511C22.4469 35.9372 20.7389 36.3539 19.0678 36.6003C17.3965 36.8475 15.7643 36.9279 14.2293 36.8739C13.4621 36.8532 12.7178 36.7821 12.0044 36.7014C11.2906 36.6036 10.6068 36.5002 9.95773 36.3539L9.47717 36.2521C9.31918 36.2181 9.16382 36.1726 9.01043 36.1338C8.71163 36.0567 8.41389 35.9756 8.1173 35.8905C7.82922 35.8036 7.55084 35.7101 7.28177 35.619L6.88516 35.4842C6.75527 35.4401 6.62911 35.3861 6.50451 35.3387C6.26432 35.245 6.02526 35.1484 5.7874 35.0489C5.55731 34.9586 5.34015 34.8523 5.13191 34.7545C4.7161 34.5551 4.3379 34.3754 4.00614 34.1837C3.71087 34.0184 3.41844 33.8481 3.12898 33.6728C2.91836 33.5355 2.70998 33.3948 2.50394 33.2507C2.16875 33.0176 1.99674 32.8818 1.99674 32.8818C0.396005 31.6166 0.123991 29.2934 1.38914 27.6926C1.89606 27.0492 2.60327 26.5933 3.39864 26.3974L3.831 26.2906C3.831 26.2906 4.01221 26.2458 4.33928 26.1835C4.50266 26.1525 4.70307 26.1136 4.93385 26.0758C5.16668 26.0287 5.43105 25.9782 5.72178 25.9271C6.01132 25.8831 6.33261 25.8085 6.67338 25.7488C7.01367 25.6932 7.3805 25.6056 7.7631 25.5353C8.1461 25.4634 8.55005 25.3624 8.96655 25.2832C9.17834 25.2307 9.39092 25.1814 9.60422 25.1353C9.82001 25.0899 10.0395 25.0322 10.2619 24.9782L10.5976 24.8959L10.7669 24.8575L10.9373 24.8114L11.281 24.7188L11.6284 24.6329L11.9788 24.5308C12.1561 24.4827 12.3334 24.4347 12.5108 24.3868L12.689 24.3307C12.8081 24.2937 12.9281 24.2603 13.0483 24.2249C14.0094 23.9363 14.9959 23.6119 15.9906 23.2457C17.9809 22.5161 20.0048 21.6205 21.9533 20.5647C22.9261 20.0365 23.8799 19.4737 24.8127 18.8776C25.7436 18.2857 26.6432 17.6604 27.5157 17.0249L27.8376 16.7822C27.891 16.7415 27.9452 16.7017 28 16.6628L28.0821 16.6041L28.152 16.5524L28.4315 16.3478L28.5726 16.2465L28.6449 16.1972L28.6811 16.1726L28.6994 16.1602L28.7229 16.1395C28.9745 15.92 29.2182 15.6986 29.4684 15.4876L29.515 15.4478L29.5267 15.4379C29.5462 15.4152 29.4008 15.5983 29.4666 15.5172L29.4854 15.5017L29.5606 15.4395L29.7106 15.3154L30.0091 15.0679C30.7968 14.406 31.5495 13.7463 32.2413 13.1002C32.8895 12.4962 33.5262 11.8799 34.1509 11.2516C34.7284 10.6746 35.2344 10.1429 35.663 9.69455C35.7678 9.58171 35.873 9.47583 35.9697 9.37454C36.0651 9.27561 36.1538 9.1902 36.2376 9.10527L36.4712 8.87087C36.5081 8.83825 36.5451 8.79349 36.5797 8.75431L36.6786 8.64186C36.9278 8.35838 37.0739 8.21097 37.0739 8.21097C38.1977 7.07697 40.028 7.06884 41.162 8.19265C41.5604 8.586 41.8351 9.0872 41.9524 9.63461Z" fill="#FFB93E"/>
<path d="M2.8605 29.7783C2.55803 30.8652 -0.279948 30.0754 0.0225295 28.9885C0.325007 27.9016 0.702515 27.7098 1.82074 28.021C2.93896 28.3321 3.16298 28.6913 2.8605 29.7783Z" fill="#A07562"/>
<path d="M40.3306 0.649141C40.2173 0.618043 40.0988 0.610443 39.9824 0.626808C39.8616 0.52322 39.7261 0.438001 39.5804 0.373895C38.9951 0.117553 38.3588 0.683522 38.0349 1.03831C37.0495 2.11764 39.2671 3.53345 37.6913 6.14055C37.4692 6.50787 37.6586 7.45399 37.9975 7.60239C38.3798 7.76979 38.8303 7.64784 39.1651 7.32323C39.1555 7.34654 39.1465 7.36956 39.1365 7.39307C38.9468 7.83885 39.3088 8.86588 39.7111 8.97784C40.3085 9.14406 40.959 8.73217 41.2232 8.02731C41.9658 6.04505 42.7593 1.32501 40.3306 0.649141Z" fill="#8E6049"/>
<path d="M45.471 8.19366C45.471 8.19366 45.5719 8.36792 45.7384 8.69655L45.8044 8.82692C45.8275 8.87335 45.8521 8.91733 45.8771 8.98188L46.0321 9.38035C46.0863 9.52356 46.1497 9.6841 46.2074 9.84592C46.263 10.0046 46.3247 10.1739 46.3844 10.3539C46.6753 11.2227 46.907 12.1101 47.078 13.0102C47.279 14.0554 47.4306 15.256 47.4779 16.5801C47.5273 17.9041 47.4616 19.3493 47.2563 20.8698C47.2347 21.061 47.2008 21.2504 47.1702 21.4425L47.1229 21.7315L47.0989 21.8768L47.0928 21.9133C47.1233 21.8186 47.0477 22.0629 47.0547 22.043L47.0521 22.0579L47.042 22.118C46.9895 22.4391 46.9259 22.7607 46.8674 23.0876L46.8618 23.1183L46.852 23.1582L46.8322 23.2385L46.7923 23.3994C46.7642 23.5069 46.7361 23.6143 46.7079 23.7218L46.5334 24.3721L46.4887 24.5352L46.4445 24.6842C46.4152 24.7841 46.3848 24.8837 46.3533 24.9829L46.1646 25.5836C45.6389 27.1861 44.944 28.7983 44.0885 30.3586C43.2201 31.9363 42.2063 33.4295 41.0603 34.8187C39.9113 36.217 38.628 37.5034 37.2646 38.6441C35.9014 39.7854 34.4578 40.781 32.9893 41.6064C31.5211 42.4329 30.0324 43.0933 28.5873 43.5974C27.8673 43.8552 27.1508 44.0585 26.4598 44.2431C25.7621 44.4116 25.0907 44.5651 24.4361 44.6669L23.9538 44.7484C23.795 44.7749 23.6347 44.7897 23.4784 44.8101C23.1654 44.8492 22.86 44.8836 22.5627 44.9132C22.2642 44.9386 21.9724 44.9549 21.6902 44.9702L21.2739 44.9922C21.1376 44.9996 21.0011 44.9964 20.8685 44.9988C20.3363 45.001 19.8434 45.0037 19.3848 44.9701C18.9272 44.9412 18.5115 44.9176 18.1343 44.8656L17.6022 44.7956L17.1353 44.7242C16.8458 44.6723 16.6005 44.6189 16.4026 44.5758C16.0069 44.4895 15.798 44.4315 15.798 44.4315C13.8525 43.8919 12.713 41.8773 13.2526 39.932C13.4867 39.0833 14.0203 38.3481 14.7547 37.8626L15.1155 37.6241C15.1155 37.6241 15.2687 37.5229 15.5521 37.3554C15.6938 37.2717 15.8672 37.1683 16.07 37.0575L16.3919 36.8612L16.754 36.6495C17.0094 36.5097 17.2836 36.3301 17.5817 36.1569C17.8808 35.9879 18.1933 35.779 18.5271 35.5802C18.8607 35.3797 19.2034 35.1441 19.5659 34.9232C19.9205 34.6766 20.2966 34.4477 20.6719 34.1793L20.9573 33.9828L21.1024 33.8862L21.2456 33.782L21.5347 33.5723L21.8295 33.3666L22.1213 33.145L22.4184 32.927L22.568 32.8174L22.7148 32.7003L23.013 32.4705C23.8088 31.8502 24.6134 31.1832 25.407 30.4707C26.2005 29.7583 26.9865 29.0048 27.7449 28.2097C28.5038 27.4152 29.2343 26.5793 29.9316 25.7182C31.3224 23.9923 32.5693 22.1562 33.6395 20.3185L33.8354 19.9729C33.8678 19.9154 33.9009 19.8581 33.9353 19.8016L33.9864 19.7165L34.0284 19.6427L34.1971 19.3508L34.2831 19.2057L34.3279 19.1337L34.3505 19.0977L34.3617 19.0796L34.375 19.0515C34.5188 18.752 34.6555 18.4541 34.8007 18.163L34.8277 18.1083L34.8344 18.0947C34.8445 18.0652 34.7718 18.2999 34.805 18.1956L34.8157 18.1742L34.8585 18.0889L34.9442 17.9188L35.1143 17.5802C35.5591 16.679 35.9696 15.7974 36.329 14.9549C36.6648 14.1701 36.9851 13.3787 37.2895 12.5812C37.5714 11.8506 37.8064 11.1899 38.0058 10.6339C38.0534 10.4951 38.1038 10.3624 38.1488 10.2371C38.1933 10.115 38.2367 10.0098 38.2765 9.90557L38.3884 9.61789C38.4078 9.57743 38.4226 9.5217 38.4375 9.47302L38.4798 9.33314C38.5866 8.98051 38.6557 8.79137 38.6557 8.79137C39.3713 6.83212 41.5398 5.82409 43.4989 6.53973C44.3623 6.85485 45.0431 7.45637 45.471 8.19366Z" fill="#FFCE6C"/>
<path d="M44.8007 17.7073C44.8007 17.7073 44.8616 17.9897 44.9231 18.4782C44.9311 18.5393 44.9398 18.6037 44.9467 18.671L44.9581 18.7743L44.9634 18.8897C44.9716 19.0474 44.9725 19.218 44.9772 19.4021C44.9794 19.585 44.9801 19.7844 44.975 19.9883L44.9334 20.619C44.9053 21.0613 44.8289 21.5311 44.7429 22.0311C44.7239 22.1569 44.6941 22.2809 44.6651 22.4071L44.5739 22.7898C44.51 23.0474 44.448 23.313 44.3597 23.5733C44.2756 23.8404 44.1882 24.1064 44.0975 24.3712C43.9972 24.636 43.8878 24.901 43.7783 25.1688C43.7206 25.3012 43.6699 25.438 43.6051 25.568L43.4143 25.9612L43.2188 26.3542C43.1552 26.4864 43.0834 26.6139 43.0098 26.7404C42.8652 26.9945 42.7182 27.2472 42.5689 27.4985C42.412 27.7417 42.2518 27.9829 42.0884 28.2218C41.9314 28.4627 41.757 28.6882 41.5852 28.9107C41.4111 29.1316 41.2462 29.3549 41.0657 29.5596C40.7057 29.9699 40.3573 30.364 39.9932 30.7058L39.7278 30.9612C39.6399 31.0441 39.5557 31.1278 39.4655 31.2033C39.2857 31.3548 39.1171 31.5044 38.9473 31.6403C38.6171 31.9206 38.2901 32.1502 38.0008 32.3512C37.8551 32.4507 37.721 32.5453 37.5925 32.6273C37.4729 32.7007 37.3522 32.7722 37.2305 32.8421C37.0606 32.9411 36.8884 33.036 36.714 33.1267C36.5929 33.1894 36.5269 33.2206 36.5269 33.2206C36.3757 33.2922 36.2058 33.3142 36.0414 33.2835C35.877 33.2528 35.7265 33.1709 35.6113 33.0496C35.4962 32.9282 35.4223 32.7737 35.4003 32.6079C35.3782 32.4421 35.409 32.2735 35.4884 32.1263L35.5021 32.1013L35.5985 31.925C35.6627 31.8118 35.7572 31.647 35.8831 31.4459C35.9448 31.3441 36.0157 31.2346 36.0926 31.1157C36.1645 30.992 36.2459 30.8626 36.3313 30.7236C36.5028 30.4464 36.7059 30.146 36.9097 29.8071C37.0118 29.6377 37.1263 29.4697 37.2397 29.2921C37.3504 29.1123 37.4619 28.9254 37.5808 28.7377C37.8241 28.366 38.0562 27.9604 38.3118 27.5554C38.3779 27.4556 38.4371 27.3502 38.4976 27.2448L38.684 26.9294L38.8758 26.6131C38.9409 26.5077 38.9979 26.397 39.0608 26.2893C39.1823 26.0714 39.3116 25.8563 39.4373 25.6383C39.556 25.416 39.6772 25.1951 39.8008 24.9756C39.9289 24.758 40.0361 24.5306 40.1554 24.3099C40.2722 24.0882 40.3961 23.8705 40.501 23.6467C40.6111 23.4271 40.723 23.2084 40.8369 22.9908C40.9378 22.7733 41.0418 22.5572 41.1489 22.3426C41.2588 22.1317 41.3497 21.9185 41.4466 21.7114L41.5917 21.4043C41.6415 21.3053 41.688 21.2048 41.7311 21.1028C41.8159 20.9073 41.903 20.7128 41.9924 20.5195C42.0868 20.3326 42.157 20.1464 42.2332 19.9687L42.4601 19.4576C42.5324 19.2973 42.5883 19.1473 42.6523 19.004C42.7162 18.8615 42.7727 18.7262 42.8321 18.6012L42.875 18.5089L42.9119 18.4117C42.9354 18.3483 42.9601 18.2882 42.9832 18.2311C43.1655 17.7736 43.2953 17.5155 43.2953 17.5155C43.3912 17.3249 43.5588 17.1801 43.7614 17.1131C43.964 17.0461 44.1849 17.0623 44.3755 17.1581C44.6006 17.271 44.7503 17.4793 44.8007 17.7073Z" fill="#FFDF95"/>
<path d="M15.4762 41.2262C15.5887 42.3489 15.3065 42.6646 14.1517 42.7804C12.9968 42.8961 12.6576 42.6427 12.5451 41.5201C12.4325 40.3975 12.7147 40.0818 13.8696 39.966C15.0244 39.8502 15.3636 40.1036 15.4762 41.2262Z" fill="#8E6049"/>
<path d="M42.2677 8.47196C42.8847 8.41015 43.3414 7.79031 43.3317 7.03755C43.3046 4.92089 44.9326 1.6341 42.6882 0.486096C40.0312 -0.872993 37.9424 0.994078 37.8202 1.52224C37.4486 3.12934 40.2836 3.38862 41.1779 7.88434C41.2725 8.35941 41.8522 8.51359 42.2677 8.47196Z" fill="#966C5A"/>
<path d="M41.9523 3.67949C41.2384 4.83738 41.9531 8.50355 42.2677 8.47201C42.8848 8.4101 44.5283 -0.497986 41.9523 3.67949Z" fill="#1AC84B"/>
</svg>
